<svg class="icon" viewBox="0 0 1024 1024" xmlns="http://www.w3.org/2000/svg" width="200" height="200"><path d="M439.855 5.564c104.202-14.864 212.93 2.842 306.39 51.43 100.54 51.55 183.03 137.404 230.343 239.976 51.142 109.312 61.126 236.962 28.557 353.124-28.557 102.63-90.149 195.918-173.683 262.091-79.005 63.274-177.225 102.573-278.293 109.945-126.898 11.206-257.217-28.5-357.063-107.505-71.925-56.08-127.947-132.18-160.971-217.109-48.013-122.425-45.924-263.544 5.69-384.465C108.156 150.225 265.07 28.724 439.85 5.564zM286.939 358.358c-57.688 28.51-96.203 92.129-92.865 156.74.648 62.417 39.905 121.94 96.157 148.203 36.665 17.826 79.266 19.827 118.721 11.834 45.887-9.634 84.501-39.294 116.585-72.255 50.071-51.226 80.765-116.992 121.067-175.412a29169.058 29169.058 0 0 1 63.32 115.696c-22.961-14.785-43.687-32.81-67.406-46.487-15.642 11.18-31.086 22.669-46.88 33.65 57.993 45.892 118.325 88.785 177.513 133.126 12.11 8.187 26.008 21.77 41.702 13.73 16.442-6.688 21.128-28.411 11.311-42.543-48.927-93.127-101.34-184.352-152.503-276.282-5.282-12.236-18.338-21.32-31.99-17.376-12.6 1.995-18.927 14.529-25.359 24.116-29.988 49.434-57.74 100.32-91.02 147.707-31.64 45.14-72.047 90.227-127.599 103.81-54.204 14.232-117.728-13.583-138.449-67.108-16.645-43.196-2.742-96.079 34.122-124.338 33.583-27.167 81.01-29.11 120.868-16.525 39.863 12.878 71.497 41.64 103.482 67.459 16.342-11.285 33.63-21.672 47.631-35.955-42.005-37.303-86.888-74.25-141.197-91.528-44.988-11.834-95.112-12.278-137.21 9.738z" fill="#515151"/></svg>