<svg class="icon" viewBox="0 0 1024 1024" xmlns="http://www.w3.org/2000/svg" width="200" height="200"><path d="M512.1 0C229.2 0 0 229.2 0 512s229.2 512 512.1 512c282.7 0 511.9-229.2 511.9-512S794.7 0 512.1 0zM297.4 333.2h429.3c1.3 0 2.3.6 3.6.7L508.9 555.2 288.6 334.9c2.9-.7 5.7-1.7 8.8-1.7zm465 321.9c0 19.8-16 35.8-35.8 35.8H297.4c-19.7 0-35.8-16-35.8-35.8V368.9c0-3.1 1.1-5.9 1.7-8.8l233 233c3.4 3.4 7.9 5.2 12.7 5.2 4.7 0 9.3-1.9 12.7-5.2l238-238.1c1.7 4.3 2.8 8.9 2.8 13.9v286.2h-.1z" fill="#515151"/></svg>