<svg class="icon" viewBox="0 0 1024 1024" xmlns="http://www.w3.org/2000/svg" width="200" height="200"><path d="M512 0C229.376 0 0 229.376 0 512s229.376 512 512 512 512-229.376 512-512S794.624 0 512 0zM249.856 263.168c0-7.168 6.144-13.312 13.312-13.312H424.96v33.792h-128c-7.168 0-13.312 6.144-13.312 13.312v128h-33.792V263.168zM424.96 774.144H263.168c-7.168 0-13.312-6.144-13.312-13.312V599.04h33.792v128c0 7.168 5.12 12.288 12.288 13.312h128v33.792zm108.544-133.12-33.792 1.024-1.024-58.368h-77.824v-26.624h76.8l-1.024-47.104h-75.776v-26.624h67.584l-71.68-102.4h33.792L512 470.016l62.464-89.088h33.792l-70.656 102.4h66.56v26.624h-72.704l1.024 47.104h71.68v26.624h-71.68l1.024 57.344zm240.64 119.808c0 7.168-6.144 13.312-13.312 13.312H599.04v-33.792h128c7.168 0 13.312-6.144 13.312-13.312v-128h33.792v161.792zm0-335.872h-33.792v-128c0-7.168-5.12-12.288-12.288-13.312H599.04v-33.792h161.792c7.168 0 13.312 6.144 13.312 13.312V424.96z" fill="#515151"/></svg>