<svg class="icon" viewBox="0 0 1024 1024" xmlns="http://www.w3.org/2000/svg" width="200" height="200"><path d="M512 0C230.4 0 0 230.4 0 512s230.4 512 512 512 512-230.4 512-512S793.6 0 512 0zm227.2 636.8s-16 44.8-44.8 83.2c0 0 54.4 19.2 48 64 0 0 3.2 51.2-112 48 0 0-80-6.4-105.6-41.6h-22.4C476.8 825.6 396.8 832 396.8 832c-115.2 3.2-112-48-112-48-3.2-48 48-64 48-64-28.8-38.4-44.8-83.2-44.8-83.2-73.6 115.2-64-16-64-16 12.8-80 70.4-131.2 70.4-131.2-9.6-70.4 22.4-83.2 22.4-83.2 6.4-220.8 195.2-217.6 198.4-217.6s192-3.2 198.4 217.6c0 0 28.8 12.8 22.4 83.2 0 0 57.6 51.2 70.4 131.2-3.2 0 3.2 131.2-67.2 16z" fill="#515151"/></svg>